<mxfile host="Electron" agent="Mozilla/5.0 (Windows NT 10.0; Win64; x64) AppleWebKit/537.36 (KHTML, like Gecko) draw.io/24.7.8 Chrome/128.0.6613.36 Electron/32.0.1 Safari/537.36" version="24.7.8">
  <diagram id="e3q73qmI6FWCRJhKJi0n" name="Page-1">
    <mxGraphModel dx="691" dy="399" grid="1" gridSize="10" guides="1" tooltips="1" connect="1" arrows="1" fold="1" page="1" pageScale="1" pageWidth="850" pageHeight="1100" math="0" shadow="0">
      <root>
        <UserObject label="" animation="# show everything&#xa;show VQUGQQ_OnS2NU-rycE4X-38 fade&#xa;show VQUGQQ_OnS2NU-rycE4X-29 fade&#xa;show VQUGQQ_OnS2NU-rycE4X-78 fade&#xa;show VQUGQQ_OnS2NU-rycE4X-23 fade&#xa;show VQUGQQ_OnS2NU-rycE4X-18 fade&#xa;show VQUGQQ_OnS2NU-rycE4X-32 fade&#xa;show VQUGQQ_OnS2NU-rycE4X-6 fade&#xa;show VQUGQQ_OnS2NU-rycE4X-35 fade&#xa;show VQUGQQ_OnS2NU-rycE4X-34 fade&#xa;show VQUGQQ_OnS2NU-rycE4X-36 fade&#xa;show VQUGQQ_OnS2NU-rycE4X-37 fade&#xa;show IBNPmSZJS5FAOytZOC4L-5 fade&#xa;&#xa;show wN3jGvzEee-aj5tuvHeW-2 fade&#xa;show wN3jGvzEee-aj5tuvHeW-1 fade&#xa;show VQUGQQ_OnS2NU-rycE4X-10 fade&#xa;show VQUGQQ_OnS2NU-rycE4X-20 fade&#xa;show VQUGQQ_OnS2NU-rycE4X-39 fade&#xa;show VQUGQQ_OnS2NU-rycE4X-8 fade&#xa;show VQUGQQ_OnS2NU-rycE4X-53 fade&#xa;show wN3jGvzEee-aj5tuvHeW-4 fade&#xa;show wN3jGvzEee-aj5tuvHeW-3 fade&#xa;wait 1000&#xa;&#xa;# Wiretap deployed, show handshake&#xa;show wN3jGvzEee-aj5tuvHeW-5 fade&#xa;show wN3jGvzEee-aj5tuvHeW-6 fade&#xa;show FmDstwN8osCTSLxOBSY--1 fade&#xa;show FmDstwN8osCTSLxOBSY--7 fade&#xa;show FmDstwN8osCTSLxOBSY--10 fade&#xa;show FmDstwN8osCTSLxOBSY--2 fade&#xa;flow wN3jGvzEee-aj5tuvHeW-6 start&#xa;flow FmDstwN8osCTSLxOBSY--1 start&#xa;flow FmDstwN8osCTSLxOBSY--7 start&#xa;flow FmDstwN8osCTSLxOBSY--10 start&#xa;flow FmDstwN8osCTSLxOBSY--2 start&#xa;wait 2000&#xa;show FmDstwN8osCTSLxOBSY--9 fade&#xa;show oPV8zDyL8UI4lHpnsqUg-2 fade&#xa;show oPV8zDyL8UI4lHpnsqUg-3 fade&#xa;show oPV8zDyL8UI4lHpnsqUg-4 fade&#xa;show oPV8zDyL8UI4lHpnsqUg-5 fade&#xa;flow FmDstwN8osCTSLxOBSY--9 start&#xa;flow oPV8zDyL8UI4lHpnsqUg-2 start&#xa;flow oPV8zDyL8UI4lHpnsqUg-3 start&#xa;flow oPV8zDyL8UI4lHpnsqUg-4 start&#xa;wait 2000&#xa;&#xa;# show ping&#xa;show oPV8zDyL8UI4lHpnsqUg-7 fade&#xa;wait 1000&#xa;&#xa;show VQUGQQ_OnS2NU-rycE4X-77 fade&#xa;wait 1000&#xa;&#xa;&#xa;show oPV8zDyL8UI4lHpnsqUg-10 fade&#xa;show oPV8zDyL8UI4lHpnsqUg-12 fade&#xa;wait 1000&#xa;&#xa;show oPV8zDyL8UI4lHpnsqUg-15 fade&#xa;show oPV8zDyL8UI4lHpnsqUg-16 fade&#xa;wait 1000&#xa;&#xa;show oPV8zDyL8UI4lHpnsqUg-8 fade&#xa;wait 5000&#xa;" id="0">
          <mxCell />
        </UserObject>
        <mxCell id="1" parent="0" />
        <mxCell id="otl0SbykxiUmqOMH1q8d-3" value="" style="rounded=1;whiteSpace=wrap;html=1;fillColor=#fff2cc;strokeColor=#d6b656;" parent="1" vertex="1">
          <mxGeometry x="590" y="359.37" width="142.21" height="259.05" as="geometry" />
        </mxCell>
        <mxCell id="otl0SbykxiUmqOMH1q8d-2" value="" style="rounded=1;whiteSpace=wrap;html=1;fillColor=#dae8fc;strokeColor=#6c8ebf;" parent="1" vertex="1">
          <mxGeometry x="417.79" y="359.37" width="162.21" height="259.05" as="geometry" />
        </mxCell>
        <mxCell id="otl0SbykxiUmqOMH1q8d-1" value="" style="rounded=1;whiteSpace=wrap;html=1;fillColor=#f8cecc;strokeColor=#b85450;" parent="1" vertex="1">
          <mxGeometry x="170" y="363.42" width="240" height="256.58" as="geometry" />
        </mxCell>
        <mxCell id="UdXJEi5H5I6sasGvbrkG-54" style="edgeStyle=orthogonalEdgeStyle;orthogonalLoop=1;jettySize=auto;html=1;endArrow=none;endFill=0;dashed=1;rounded=1;strokeColor=#00994d;strokeWidth=3;flowAnimation=1;" parent="1" source="UdXJEi5H5I6sasGvbrkG-32" edge="1">
          <mxGeometry relative="1" as="geometry">
            <mxPoint x="218.58444444444444" y="434.3231952929072" as="sourcePoint" />
            <mxPoint x="666" y="401" as="targetPoint" />
            <Array as="points">
              <mxPoint x="219" y="401" />
              <mxPoint x="650" y="401" />
            </Array>
          </mxGeometry>
        </mxCell>
        <mxCell id="UdXJEi5H5I6sasGvbrkG-53" style="edgeStyle=orthogonalEdgeStyle;orthogonalLoop=1;jettySize=auto;html=1;endArrow=none;endFill=0;dashed=1;rounded=1;strokeColor=#00994D;strokeWidth=3;flowAnimation=1;bendable=1;" parent="1" edge="1">
          <mxGeometry relative="1" as="geometry">
            <mxPoint x="211" y="434.32319529290726" as="sourcePoint" />
            <mxPoint x="680" y="393" as="targetPoint" />
            <Array as="points">
              <mxPoint x="211" y="393" />
              <mxPoint x="670" y="393" />
            </Array>
          </mxGeometry>
        </mxCell>
        <mxCell id="VQUGQQ_OnS2NU-rycE4X-8" value="" style="verticalLabelPosition=bottom;html=1;verticalAlign=top;strokeWidth=1;align=center;outlineConnect=0;dashed=0;outlineConnect=0;shape=mxgraph.aws3d.application2;fillColor=#7EA6E0;strokeColor=#A9C4EB;aspect=fixed;" parent="1" vertex="1">
          <mxGeometry x="447.31221759259256" y="497.81039804514177" width="99.67603369558228" height="85.20693203009452" as="geometry" />
        </mxCell>
        <mxCell id="UdXJEi5H5I6sasGvbrkG-80" style="edgeStyle=orthogonalEdgeStyle;rounded=0;orthogonalLoop=1;jettySize=auto;html=1;dashed=1;endArrow=classic;endFill=1;strokeColor=#EA6B66;strokeWidth=3;flowAnimation=1;" parent="1" source="VQUGQQ_OnS2NU-rycE4X-10" edge="1">
          <mxGeometry relative="1" as="geometry">
            <mxPoint x="790" y="541" as="targetPoint" />
            <Array as="points">
              <mxPoint x="763.3498148148147" y="540.4299408398174" />
              <mxPoint x="763.3498148148147" y="540.4299408398174" />
            </Array>
          </mxGeometry>
        </mxCell>
        <mxCell id="VQUGQQ_OnS2NU-rycE4X-29" value="" style="verticalLabelPosition=bottom;html=1;verticalAlign=top;strokeWidth=1;align=center;outlineConnect=0;dashed=0;outlineConnect=0;shape=mxgraph.aws3d.dataCenter;strokeColor=#5E5E5E;aspect=fixed;fillColor=#FF6666;gradientColor=none;" parent="1" vertex="1">
          <mxGeometry x="279.4192518518519" y="468.17319529290717" width="114.19336569995498" height="131.82959295222173" as="geometry" />
        </mxCell>
        <mxCell id="dTdVm22ynEOEwNfV1y40-19" value="" style="group" parent="1" vertex="1" connectable="0">
          <mxGeometry x="246.81180555555554" y="600.0028904893576" width="86.38092499999999" height="32.941321458427105" as="geometry" />
        </mxCell>
        <mxCell id="dTdVm22ynEOEwNfV1y40-20" value="&lt;br&gt;&lt;div&gt;&lt;i&gt;&lt;/i&gt;&lt;/div&gt;" style="text;html=1;strokeColor=#314354;fillColor=#647687;align=left;verticalAlign=middle;whiteSpace=wrap;rounded=1;fontFamily=Courier New;fontStyle=1;fontColor=#ffffff;" parent="dTdVm22ynEOEwNfV1y40-19" vertex="1">
          <mxGeometry y="1.0766082248970532" width="86.38092500000005" height="31.864713233530047" as="geometry" />
        </mxCell>
        <mxCell id="dTdVm22ynEOEwNfV1y40-21" value="&lt;font style=&quot;font-size: 14px;&quot;&gt;Client&lt;/font&gt;" style="text;html=1;align=center;verticalAlign=middle;whiteSpace=wrap;rounded=0;fontFamily=Courier New;fontStyle=1;fontColor=#FFFFFF;" parent="dTdVm22ynEOEwNfV1y40-19" vertex="1">
          <mxGeometry x="13.463892312765376" y="6.175822967623829" width="59.44323316894142" height="21.676675669068054" as="geometry" />
        </mxCell>
        <mxCell id="UdXJEi5H5I6sasGvbrkG-14" value="" style="group" parent="1" vertex="1" connectable="0">
          <mxGeometry x="435.0134259259259" y="589.9981441707929" width="128.61481481481482" height="49.050254646003474" as="geometry" />
        </mxCell>
        <mxCell id="UdXJEi5H5I6sasGvbrkG-15" value="&lt;br&gt;&lt;div&gt;&lt;i&gt;&lt;/i&gt;&lt;/div&gt;" style="text;html=1;strokeColor=#314354;fillColor=#647687;align=left;verticalAlign=middle;whiteSpace=wrap;rounded=1;fontFamily=Courier New;fontStyle=1;fontColor=#ffffff;" parent="UdXJEi5H5I6sasGvbrkG-14" vertex="1">
          <mxGeometry x="6.430740740740741" y="8.858305575204167" width="115.75333333333333" height="32.941321458427105" as="geometry" />
        </mxCell>
        <mxCell id="UdXJEi5H5I6sasGvbrkG-16" value="&lt;font style=&quot;font-size: 14px;&quot;&gt;Server 1&lt;/font&gt;" style="text;html=1;align=center;verticalAlign=middle;whiteSpace=wrap;rounded=0;fontFamily=Courier New;fontStyle=1;fontColor=#FFFFFF;" parent="UdXJEi5H5I6sasGvbrkG-14" vertex="1">
          <mxGeometry x="3.9709824074074076" y="5.80371744582342" width="124.64383240740742" height="39.034420937560284" as="geometry" />
        </mxCell>
        <mxCell id="UdXJEi5H5I6sasGvbrkG-49" value="" style="verticalLabelPosition=bottom;html=1;verticalAlign=top;strokeWidth=1;align=center;outlineConnect=0;dashed=0;outlineConnect=0;shape=mxgraph.aws3d.decider;fillColor=#b9e0a5;strokeColor=#5E5E5E;aspect=fixed;" parent="1" vertex="1">
          <mxGeometry x="461.4598472222222" y="434.30711851327885" width="71.38090154973956" height="48.23033888495917" as="geometry" />
        </mxCell>
        <mxCell id="UdXJEi5H5I6sasGvbrkG-56" style="orthogonalLoop=1;jettySize=auto;html=1;endArrow=none;endFill=0;dashed=1;rounded=1;strokeColor=#9933FF;strokeWidth=3;flowAnimation=1;" parent="1" edge="1">
          <mxGeometry relative="1" as="geometry">
            <mxPoint x="233" y="388" as="sourcePoint" />
            <mxPoint x="466" y="389" as="targetPoint" />
          </mxGeometry>
        </mxCell>
        <mxCell id="UdXJEi5H5I6sasGvbrkG-57" style="edgeStyle=orthogonalEdgeStyle;orthogonalLoop=1;jettySize=auto;html=1;endArrow=none;endFill=0;dashed=1;rounded=1;strokeColor=#9933ff;strokeWidth=3;flowAnimation=1;" parent="1" edge="1">
          <mxGeometry relative="1" as="geometry">
            <mxPoint x="230" y="405" as="sourcePoint" />
            <mxPoint x="476" y="406" as="targetPoint" />
            <Array as="points">
              <mxPoint x="460" y="405" />
              <mxPoint x="460" y="404" />
            </Array>
          </mxGeometry>
        </mxCell>
        <mxCell id="BCIZV20WK8BZ9zTAtMcw-4" style="edgeStyle=none;rounded=1;orthogonalLoop=1;jettySize=auto;html=1;shadow=0;dashed=1;strokeColor=#ea6b66;endArrow=none;endFill=0;strokeWidth=3;flowAnimation=1;" parent="1" source="UdXJEi5H5I6sasGvbrkG-52" target="VQUGQQ_OnS2NU-rycE4X-10" edge="1">
          <mxGeometry relative="1" as="geometry" />
        </mxCell>
        <mxCell id="UdXJEi5H5I6sasGvbrkG-58" value="&lt;br&gt;&lt;div&gt;&lt;i&gt;&lt;/i&gt;&lt;/div&gt;" style="text;html=1;strokeColor=#314354;fillColor=#647687;align=left;verticalAlign=middle;whiteSpace=wrap;rounded=1;fontFamily=Courier New;fontStyle=1;fontColor=#ffffff;" parent="1" vertex="1">
          <mxGeometry x="748.6557407407406" y="554.0999408398175" width="245.97583333333333" height="79.58005916018263" as="geometry" />
        </mxCell>
        <mxCell id="UdXJEi5H5I6sasGvbrkG-65" value="" style="group" parent="1" vertex="1" connectable="0">
          <mxGeometry x="748.6603703703704" y="385.9960767796283" width="257.22962962962964" height="160.7677962831972" as="geometry" />
        </mxCell>
        <mxCell id="UdXJEi5H5I6sasGvbrkG-5" value="&lt;br&gt;&lt;div&gt;&lt;i&gt;&lt;/i&gt;&lt;/div&gt;" style="text;html=1;strokeColor=#314354;fillColor=#00994d;align=left;verticalAlign=middle;whiteSpace=wrap;rounded=1;fontFamily=Courier New;fontStyle=1;fontColor=#ffffff;gradientColor=none;" parent="UdXJEi5H5I6sasGvbrkG-65" vertex="1">
          <mxGeometry x="-1.0166834547893147" y="85.3838981415986" width="209.83528206859683" height="56.14506116351657" as="geometry" />
        </mxCell>
        <mxCell id="UdXJEi5H5I6sasGvbrkG-6" value="&lt;font style=&quot;font-size: 14px;&quot;&gt;WireGuard End-to-End Encrypted Interface&lt;/font&gt;" style="text;html=1;align=center;verticalAlign=middle;whiteSpace=wrap;rounded=0;fontFamily=Courier New;fontStyle=1;fontColor=#FFFFFF;" parent="UdXJEi5H5I6sasGvbrkG-65" vertex="1">
          <mxGeometry x="-4" y="92.0619450641314" width="215.80191515901828" height="42.78896731845096" as="geometry" />
        </mxCell>
        <mxCell id="UdXJEi5H5I6sasGvbrkG-30" value="" style="verticalLabelPosition=bottom;html=1;verticalAlign=top;strokeWidth=1;align=center;outlineConnect=0;dashed=0;outlineConnect=0;shape=mxgraph.aws3d.decider;fillColor=#91e368;strokeColor=#5E5E5E;aspect=fixed;gradientColor=#b9e0a5;gradientDirection=east;" parent="UdXJEi5H5I6sasGvbrkG-65" vertex="1">
          <mxGeometry x="185.74674882530036" y="122.48415882233644" width="61.49739210439102" height="41.55229196242636" as="geometry" />
        </mxCell>
        <mxCell id="UdXJEi5H5I6sasGvbrkG-11" value="&lt;br&gt;&lt;div&gt;&lt;i&gt;&lt;/i&gt;&lt;/div&gt;" style="text;html=1;strokeColor=#9673a6;fillColor=#9933ff;align=left;verticalAlign=middle;whiteSpace=wrap;rounded=1;fontFamily=Courier New;fontStyle=1;" parent="UdXJEi5H5I6sasGvbrkG-65" vertex="1">
          <mxGeometry x="-1.0166834547893147" y="5" width="209.83528206859683" height="56.14506116351657" as="geometry" />
        </mxCell>
        <mxCell id="UdXJEi5H5I6sasGvbrkG-12" value="&lt;font style=&quot;font-size: 14px;&quot;&gt;WireGuard Relay&lt;br&gt;Interface&lt;/font&gt;" style="text;html=1;align=center;verticalAlign=middle;whiteSpace=wrap;rounded=0;fontFamily=Courier New;fontStyle=1;fontColor=#FFFFFF;" parent="UdXJEi5H5I6sasGvbrkG-65" vertex="1">
          <mxGeometry x="28.568957917147337" y="10.441371566508186" width="150.66399932472356" height="45.26231803050015" as="geometry" />
        </mxCell>
        <mxCell id="UdXJEi5H5I6sasGvbrkG-31" value="" style="verticalLabelPosition=bottom;html=1;verticalAlign=top;strokeWidth=1;align=center;outlineConnect=0;dashed=0;outlineConnect=0;shape=mxgraph.aws3d.decider;fillColor=#eeb8ff;strokeColor=#5E5E5E;aspect=fixed;gradientColor=#fca1ff;gradientDirection=east;" parent="UdXJEi5H5I6sasGvbrkG-65" vertex="1">
          <mxGeometry x="185.74674882530036" y="42.100260680737826" width="61.49739210439102" height="41.55229196242636" as="geometry" />
        </mxCell>
        <mxCell id="UdXJEi5H5I6sasGvbrkG-73" value="&lt;div style=&quot;line-height: 180%; font-size: 11px;&quot;&gt;&lt;font face=&quot;Courier New&quot; color=&quot;#ffffff&quot; style=&quot;font-size: 11px;&quot;&gt;&lt;b style=&quot;&quot;&gt;Unencrypted&lt;/b&gt;&lt;/font&gt;&lt;/div&gt;&lt;div style=&quot;line-height: 180%; font-size: 11px;&quot;&gt;&lt;font style=&quot;font-size: 11px;&quot;&gt;&lt;b style=&quot;color: rgb(255, 255, 255); font-family: &amp;quot;Courier New&amp;quot;; background-color: initial;&quot;&gt;End-To-End Encrypted&lt;/b&gt;&lt;br&gt;&lt;/font&gt;&lt;/div&gt;&lt;div style=&quot;line-height: 180%; font-size: 11px;&quot;&gt;&lt;font face=&quot;Courier New&quot; color=&quot;#ffffff&quot; style=&quot;font-size: 11px;&quot;&gt;&lt;b style=&quot;&quot;&gt;Relay Encrypted&lt;/b&gt;&lt;/font&gt;&lt;/div&gt;" style="text;whiteSpace=wrap;html=1;fontSize=8;align=left;verticalAlign=middle;horizontal=1;spacingTop=0;" parent="1" vertex="1">
          <mxGeometry x="853.5245370370369" y="557.6733772747734" width="146.29935185185187" height="73.95318629027072" as="geometry" />
        </mxCell>
        <mxCell id="UdXJEi5H5I6sasGvbrkG-75" value="" style="endArrow=none;dashed=1;html=1;rounded=0;strokeWidth=3;strokeColor=#EA6B66;flowAnimation=1;" parent="1" edge="1">
          <mxGeometry width="50" height="50" relative="1" as="geometry">
            <mxPoint x="764.7325925925925" y="573.7939958845091" as="sourcePoint" />
            <mxPoint x="845.1168518518517" y="573.7939958845091" as="targetPoint" />
          </mxGeometry>
        </mxCell>
        <mxCell id="UdXJEi5H5I6sasGvbrkG-77" value="" style="endArrow=none;dashed=1;html=1;rounded=0;strokeWidth=3;strokeColor=#00994d;shadow=0;flowAnimation=1;" parent="1" edge="1">
          <mxGeometry width="50" height="50" relative="1" as="geometry">
            <mxPoint x="764.7325925925925" y="596.3014873641566" as="sourcePoint" />
            <mxPoint x="845.1168518518517" y="596.3014873641566" as="targetPoint" />
          </mxGeometry>
        </mxCell>
        <mxCell id="UdXJEi5H5I6sasGvbrkG-78" value="" style="endArrow=none;dashed=1;html=1;rounded=0;strokeWidth=3;strokeColor=#C078FF;flowAnimation=1;" parent="1" edge="1">
          <mxGeometry width="50" height="50" relative="1" as="geometry">
            <mxPoint x="764.7325925925925" y="617.2013008809723" as="sourcePoint" />
            <mxPoint x="845.1168518518517" y="617.2013008809723" as="targetPoint" />
          </mxGeometry>
        </mxCell>
        <mxCell id="VQUGQQ_OnS2NU-rycE4X-10" value="" style="verticalLabelPosition=bottom;html=1;verticalAlign=top;strokeWidth=1;align=center;outlineConnect=0;dashed=0;outlineConnect=0;shape=mxgraph.aws3d.application2;fillColor=#fff2cc;strokeColor=#d6b656;aspect=fixed;" parent="1" vertex="1">
          <mxGeometry x="611.2710768518517" y="497.8264748247701" width="99.67603369558228" height="85.20693203009452" as="geometry" />
        </mxCell>
        <mxCell id="UdXJEi5H5I6sasGvbrkG-62" value="" style="group" parent="1" vertex="1" connectable="0">
          <mxGeometry x="620.0412037037037" y="589.9981441707929" width="128.61481481481482" height="49.05185582920714" as="geometry" />
        </mxCell>
        <mxCell id="UdXJEi5H5I6sasGvbrkG-63" value="&lt;br&gt;&lt;div&gt;&lt;i&gt;&lt;/i&gt;&lt;/div&gt;" style="text;html=1;strokeColor=#314354;fillColor=#647687;align=left;verticalAlign=middle;whiteSpace=wrap;rounded=1;fontFamily=Courier New;fontStyle=1;fontColor=#ffffff;" parent="UdXJEi5H5I6sasGvbrkG-62" vertex="1">
          <mxGeometry x="-17.04925925925926" y="8.858305575204167" width="115.75333333333333" height="32.941321458427105" as="geometry" />
        </mxCell>
        <mxCell id="UdXJEi5H5I6sasGvbrkG-64" value="&lt;font style=&quot;font-size: 14px;&quot;&gt;Server 2&lt;/font&gt;" style="text;html=1;align=center;verticalAlign=middle;whiteSpace=wrap;rounded=0;fontFamily=Courier New;fontStyle=1;fontColor=#FFFFFF;" parent="UdXJEi5H5I6sasGvbrkG-62" vertex="1">
          <mxGeometry x="-21.49901759259259" y="5.00371744582342" width="124.64383240740742" height="39.034420937560284" as="geometry" />
        </mxCell>
        <mxCell id="otl0SbykxiUmqOMH1q8d-5" value="" style="edgeStyle=orthogonalEdgeStyle;rounded=1;orthogonalLoop=1;jettySize=auto;html=1;endArrow=none;endFill=0;dashed=1;strokeColor=#EA6B66;strokeWidth=3;flowAnimation=1;" parent="1" source="VQUGQQ_OnS2NU-rycE4X-29" edge="1">
          <mxGeometry relative="1" as="geometry">
            <mxPoint x="627" y="397" as="targetPoint" />
            <Array as="points">
              <mxPoint x="215" y="515" />
            </Array>
            <mxPoint x="279.41925185185187" y="514.9999999999999" as="sourcePoint" />
          </mxGeometry>
        </mxCell>
        <mxCell id="BCIZV20WK8BZ9zTAtMcw-1" style="orthogonalLoop=1;jettySize=auto;html=1;endArrow=none;endFill=0;dashed=1;rounded=1;strokeColor=#f36af6;strokeWidth=3;flowAnimation=1;" parent="1" edge="1">
          <mxGeometry relative="1" as="geometry">
            <mxPoint x="538" y="388" as="sourcePoint" />
            <mxPoint x="641" y="388" as="targetPoint" />
          </mxGeometry>
        </mxCell>
        <mxCell id="BCIZV20WK8BZ9zTAtMcw-2" style="orthogonalLoop=1;jettySize=auto;html=1;endArrow=none;endFill=0;dashed=1;rounded=1;strokeColor=#f36af6;strokeWidth=3;flowAnimation=1;" parent="1" edge="1">
          <mxGeometry relative="1" as="geometry">
            <mxPoint x="540" y="406" as="sourcePoint" />
            <mxPoint x="658" y="405" as="targetPoint" />
          </mxGeometry>
        </mxCell>
        <mxCell id="BCIZV20WK8BZ9zTAtMcw-5" value="" style="endArrow=none;html=1;rounded=1;shadow=0;dashed=1;strokeColor=#00994d;strokeWidth=3;flowAnimation=1;" parent="1" edge="1">
          <mxGeometry width="50" height="50" relative="1" as="geometry">
            <mxPoint x="657" y="410" as="sourcePoint" />
            <mxPoint x="657" y="447" as="targetPoint" />
          </mxGeometry>
        </mxCell>
        <mxCell id="BCIZV20WK8BZ9zTAtMcw-7" value="" style="endArrow=none;html=1;rounded=1;shadow=0;dashed=1;strokeColor=#00994d;strokeWidth=3;flowAnimation=1;" parent="1" edge="1">
          <mxGeometry width="50" height="50" relative="1" as="geometry">
            <mxPoint x="665" y="410" as="sourcePoint" />
            <mxPoint x="665" y="447" as="targetPoint" />
          </mxGeometry>
        </mxCell>
        <mxCell id="UdXJEi5H5I6sasGvbrkG-32" value="" style="verticalLabelPosition=bottom;html=1;verticalAlign=top;strokeWidth=1;align=center;outlineConnect=0;dashed=0;outlineConnect=0;shape=mxgraph.aws3d.decider;fillColor=#91e368;strokeColor=#5E5E5E;aspect=fixed;" parent="1" vertex="1">
          <mxGeometry x="180" y="434.3231952929072" width="71.38090154973956" height="48.23033888495917" as="geometry" />
        </mxCell>
        <mxCell id="UdXJEi5H5I6sasGvbrkG-33" value="" style="verticalLabelPosition=bottom;html=1;verticalAlign=top;strokeWidth=1;align=center;outlineConnect=0;dashed=0;outlineConnect=0;shape=mxgraph.aws3d.decider;fillColor=#EEB8FF;strokeColor=#5e5e5e;aspect=fixed;" parent="1" vertex="1">
          <mxGeometry x="180" y="370.0160767796283" width="71.38090154973956" height="48.23033888495917" as="geometry" />
        </mxCell>
        <mxCell id="UdXJEi5H5I6sasGvbrkG-48" value="" style="verticalLabelPosition=bottom;html=1;verticalAlign=top;strokeWidth=1;align=center;outlineConnect=0;dashed=0;outlineConnect=0;shape=mxgraph.aws3d.decider;fillColor=#eeb8ff;strokeColor=#5E5E5E;aspect=fixed;gradientColor=none;" parent="1" vertex="1">
          <mxGeometry x="420.0098472222222" y="370.02" width="71.38090154973956" height="48.23033888495917" as="geometry" />
        </mxCell>
        <mxCell id="otl0SbykxiUmqOMH1q8d-4" value="" style="verticalLabelPosition=bottom;html=1;verticalAlign=top;strokeWidth=1;align=center;outlineConnect=0;dashed=0;outlineConnect=0;shape=mxgraph.aws3d.decider;fillColor=#FCA1FF;strokeColor=#5E5E5E;aspect=fixed;gradientColor=none;" parent="1" vertex="1">
          <mxGeometry x="506.3898472222222" y="370.02" width="71.38090154973956" height="48.23033888495917" as="geometry" />
        </mxCell>
        <mxCell id="UdXJEi5H5I6sasGvbrkG-52" value="" style="verticalLabelPosition=bottom;html=1;verticalAlign=top;strokeWidth=1;align=center;outlineConnect=0;outlineConnect=0;shape=mxgraph.aws3d.decider;fillColor=#fca1ff;strokeColor=#5E5E5E;aspect=fixed;gradientColor=none;" parent="1" vertex="1">
          <mxGeometry x="625.4187064814813" y="370.0160767796283" width="71.38090154973956" height="48.23033888495917" as="geometry" />
        </mxCell>
        <mxCell id="UdXJEi5H5I6sasGvbrkG-51" value="" style="verticalLabelPosition=bottom;html=1;verticalAlign=top;strokeWidth=1;align=center;outlineConnect=0;dashed=0;outlineConnect=0;shape=mxgraph.aws3d.decider;fillColor=#91e368;strokeColor=#5E5E5E;aspect=fixed;" parent="1" vertex="1">
          <mxGeometry x="625.4187064814813" y="434.3231952929072" width="71.38090154973956" height="48.23033888495917" as="geometry" />
        </mxCell>
        <mxCell id="U0NwjB4Wb9NjjVxjMh6o-1" value="" style="verticalLabelPosition=bottom;html=1;verticalAlign=top;strokeWidth=1;align=center;outlineConnect=0;dashed=0;outlineConnect=0;shape=mxgraph.aws3d.decider;fillColor=#b9e0a5;strokeColor=#5E5E5E;aspect=fixed;" parent="1" vertex="1">
          <mxGeometry x="261.80984722222223" y="434.32711851327883" width="71.38090154973956" height="48.23033888495917" as="geometry" />
        </mxCell>
      </root>
    </mxGraphModel>
  </diagram>
</mxfile>
